<svg width="30" height="30" viewBox="0 0 30 30" fill="none" xmlns="http://www.w3.org/2000/svg">
<path d="M24.9997 12.4997C24.9997 12.1682 24.868 11.8503 24.6336 11.6158C24.3992 11.3814 24.0813 11.2497 23.7497 11.2497C23.4182 11.2497 23.1003 11.3814 22.8659 11.6158C22.6314 11.8503 22.4997 12.1682 22.4997 12.4997H24.9997ZM7.49973 12.4997C7.49973 12.1682 7.36804 11.8503 7.13362 11.6158C6.8992 11.3814 6.58126 11.2497 6.24974 11.2497C5.91821 11.2497 5.60027 11.3814 5.36585 11.6158C5.13143 11.8503 4.99974 12.1682 4.99974 12.4997H7.49973ZM25.366 15.8835C25.6017 16.1112 25.9175 16.2372 26.2452 16.2343C26.573 16.2315 26.8865 16.1 27.1183 15.8683C27.35 15.6365 27.4815 15.323 27.4843 14.9952C27.4872 14.6675 27.3612 14.3517 27.1335 14.116L25.366 15.8835ZM14.9997 3.74973L15.8835 2.86598C15.6491 2.63164 15.3312 2.5 14.9997 2.5C14.6683 2.5 14.3504 2.63164 14.116 2.86598L14.9997 3.74973ZM2.86599 14.116C2.7466 14.2313 2.65137 14.3692 2.58586 14.5217C2.52035 14.6742 2.48586 14.8383 2.48442 15.0042C2.48298 15.1702 2.51461 15.3348 2.57746 15.4884C2.64031 15.642 2.73313 15.7816 2.85049 15.899C2.96786 16.0163 3.10742 16.1092 3.26104 16.172C3.41466 16.2349 3.57926 16.2665 3.74524 16.265C3.91121 16.2636 4.07524 16.2291 4.22774 16.1636C4.38025 16.0981 4.51818 16.0029 4.63349 15.8835L2.86599 14.116ZM8.74973 27.4997H21.2497V24.9997H8.74973V27.4997ZM24.9997 23.7497V12.4997H22.4997V23.7497H24.9997ZM7.49973 23.7497V12.4997H4.99974V23.7497H7.49973ZM27.1335 14.116L15.8835 2.86598L14.116 4.63348L25.366 15.8835L27.1335 14.116ZM14.116 2.86598L2.86599 14.116L4.63349 15.8835L15.8835 4.63348L14.116 2.86598ZM21.2497 27.4997C22.2443 27.4997 23.1981 27.1046 23.9014 26.4014C24.6046 25.6981 24.9997 24.7443 24.9997 23.7497H22.4997C22.4997 24.0813 22.368 24.3992 22.1336 24.6336C21.8992 24.868 21.5813 24.9997 21.2497 24.9997V27.4997ZM8.74973 24.9997C8.41821 24.9997 8.10027 24.868 7.86585 24.6336C7.63143 24.3992 7.49973 24.0813 7.49973 23.7497H4.99974C4.99974 24.7443 5.39482 25.6981 6.09808 26.4014C6.80135 27.1046 7.75517 27.4997 8.74973 27.4997V24.9997Z" fill="white"/>
</svg>
