<svg width="30" height="30" viewBox="0 0 30 30" fill="none" xmlns="http://www.w3.org/2000/svg">
<path d="M1.52328 11.2559C1.66576 10.8192 1.93344 10.4339 2.29304 10.1481C2.65265 9.86222 3.08833 9.68835 3.54594 9.64806L10.2256 9.07033L12.8389 2.84299C13.0187 2.4195 13.3191 2.05828 13.7027 1.80436C14.0864 1.55044 14.5363 1.41504 14.9963 1.41504C15.4564 1.41504 15.9063 1.55044 16.2899 1.80436C16.6736 2.05828 16.974 2.4195 17.1538 2.84299L19.7706 9.07033L26.4502 9.64806C26.9103 9.68616 27.3489 9.85929 27.711 10.1457C28.0731 10.4322 28.3425 10.8191 28.4854 11.2581C28.6284 11.6971 28.6385 12.1685 28.5145 12.6132C28.3905 13.0579 28.138 13.4561 27.7885 13.7578L22.712 18.1875L24.2354 24.7781C24.3399 25.2269 24.3097 25.6965 24.1488 26.1283C23.9878 26.5601 23.7032 26.9348 23.3304 27.2056C22.9576 27.4765 22.5133 27.6315 22.0529 27.6512C21.5925 27.6709 21.1366 27.5544 20.742 27.3164L14.9998 23.8289L9.25766 27.3164C8.86312 27.5541 8.40732 27.6702 7.94717 27.6503C7.48702 27.6304 7.04293 27.4754 6.67037 27.2046C6.29781 26.9338 6.01329 26.5592 5.85236 26.1277C5.69142 25.6962 5.6612 25.2268 5.76547 24.7781L7.28891 18.1875L2.21235 13.7578C1.86384 13.455 1.61252 13.056 1.48993 12.6109C1.36735 12.1658 1.37895 11.6944 1.52328 11.2559ZM9.34555 16.2504C9.66693 16.53 9.90603 16.8919 10.0371 17.2972C10.1683 17.7026 10.1864 18.1359 10.0897 18.5508L8.75492 24.3305L13.787 21.2742C14.1524 21.0517 14.572 20.934 14.9998 20.934C15.4277 20.934 15.8473 21.0517 16.2127 21.2742L21.2448 24.3305L19.91 18.5508C19.8133 18.1359 19.8314 17.7026 19.9626 17.2972C20.0937 16.8919 20.3328 16.53 20.6541 16.2504L25.1178 12.3563L19.242 11.8477C18.8165 11.8112 18.4092 11.6588 18.0643 11.4069C17.7195 11.155 17.4503 10.8134 17.2862 10.4192L14.9998 4.97111L12.7135 10.4192C12.5494 10.8134 12.2802 11.155 11.9353 11.4069C11.5905 11.6588 11.1831 11.8112 10.7577 11.8477L4.88188 12.3563L9.34555 16.2504Z" fill="white"/>
</svg>
